<svg xmlns="http://www.w3.org/2000/svg" width="128" height="128" fill="none"><g clip-path="url(#a)"><circle cx="64" cy="64" r="60.5" stroke="#EF4444" stroke-width="7"/><path fill="#EF4444" d="m29.736 88.186 1.206-.927.093-1.948a259.176 259.176 0 0 1 4.731-10.855c1.67-3.463 3.402-7.02 5.195-10.669l1.67-3.525a65.29 65.29 0 0 0 1.763-3.618 3.052 3.052 0 0 1-.093-.743c0-.309.062-.649.186-1.02.866-1.237 1.546-2.35 2.04-3.34.557-.99 1.083-2.01 1.578-3.061a100.551 100.551 0 0 1 1.763-3.711 22.34 22.34 0 0 1 2.505-3.619l.649-.927 1.02.092c.248-.123.495-.216.743-.278.309-.124.68-.185 1.113-.185l1.67.278c2.04-.928 3.835-2.258 5.38-3.99 1.609-1.793 3.217-3.927 4.825-6.4l1.113-1.578 1.485.928c.309.185.804.37 1.484.556.68.186 1.392.402 2.134.65 1.299.31 2.566.68 3.803 1.113 1.237.371 2.196.897 2.876 1.577l.464.835c.124.68.217 1.3.279 1.856l.37 1.67c.248 1.298.465 2.597.65 3.896a38.8 38.8 0 0 1 .371 4.175c.31 1.237.588 2.505.835 3.804a79.87 79.87 0 0 1 .835 3.71c.31 1.794.65 3.526 1.02 5.196a28.978 28.978 0 0 0 1.485 4.639c.618 0 .99.03 1.113.092.742-.309 1.608-.494 2.598-.556l1.206-.093.371 1.113c.124.186.278.371.464.557.186.185.402.371.65.556.989.062 1.7.279 2.133.65.495.31.897.618 1.206.928l.464.464c.186.123.34.216.464.278l1.67.65-.928 1.762c-.68 1.299-1.732 2.567-3.154 3.804a18.303 18.303 0 0 1-4.639 3.061c.124.433.186.835.186 1.206.062.371.154.804.278 1.3.248 1.236.433 2.535.557 3.896.185 1.298.185 2.66 0 4.082-.619 1.608-1.361 3.061-2.227 4.36a17.154 17.154 0 0 1-2.969 3.433 16.22 16.22 0 0 1-3.803 2.504 12.31 12.31 0 0 1-4.453 1.021c-.866-.186-1.516-.402-1.949-.65a14.563 14.563 0 0 1-1.02-.742c-.495-.37-.897-.618-1.206-.742l-1.206-.556.37-1.392c.186-.495.155-.928-.092-1.299-.186-.371-.619-.866-1.299-1.484a6.05 6.05 0 0 1-.65-.557 6.972 6.972 0 0 0-.649-.742l-1.855-2.134 3.061-.835c1.856-.495 3.093-1.113 3.711-1.855.619-.804.866-2.196.743-4.175-1.547-.31-2.815-.34-3.804-.093-.99.186-1.98.402-2.969.65-1.422.37-2.814.71-4.175 1.02-1.36.247-2.845.371-4.453.371-1.051 0-2.165-.093-3.34-.278l-1.02-.093-.279-1.02c0-.124-.092-.248-.278-.372a3.042 3.042 0 0 0-.37-.463c-.31-.372-.681-.866-1.114-1.485-.433-.618-.526-1.391-.279-2.32-.433-.68-.68-1.39-.742-2.133-.247.495-.464.99-.65 1.484l-.37 1.3-.371 1.205-1.206.186c-.124.124-.248.31-.372.556-.061.248-.061.433 0 .557l.372 1.02-.928.836c-.124.185-.278.34-.464.464-.185.123-.34.247-.464.37-.123.68-.31 1.33-.556 1.949a22.058 22.058 0 0 1-.65 1.855c-.31.99-.618 1.948-.928 2.876a10.761 10.761 0 0 0-.37 2.783l-.372 1.206c-.31.495-.711.866-1.206 1.114-.433.247-.866.464-1.299.65-.618.247-1.051.494-1.299.741l-.278 1.206-1.391.186c-.804.186-1.392.31-1.763.371-.31.062-.68.093-1.113.093l-1.206-.093c-.743-.742-1.361-1.299-1.856-1.67a6.003 6.003 0 0 0-1.577-1.113l-.557-.742c-.247-.495-.402-.928-.464-1.3a9.729 9.729 0 0 0-.278-1.298c-.124-.804-.31-1.36-.557-1.67l-1.391-1.392Zm29.595-24.12a60.139 60.139 0 0 0-2.505 3.896 8.57 8.57 0 0 1 1.206-.093c.433 0 .866-.03 1.299-.093 2.164-.123 4.174-.278 6.03-.463a62.75 62.75 0 0 0 6.03-.928 161.23 161.23 0 0 0-1.67-6.958 155.115 155.115 0 0 0-1.855-7.237l-.464.928a64.304 64.304 0 0 0-4.453 5.381c-1.423 1.917-2.598 3.742-3.526 5.474l-.092.092Z"/></g><defs><clipPath id="a"><path fill="#fff" d="M0 0h128v128H0z"/></clipPath></defs></svg>