<svg xmlns="http://www.w3.org/2000/svg" width="128" height="128" fill="none"><g clip-path="url(#a)"><circle cx="64" cy="64" r="60.5" stroke="#EF4444" stroke-width="7"/><path fill="#EF4444" d="M41.09 54.19c-2.597-1.051-4.762-2.535-6.494-4.453-1.67-1.917-3.03-4.175-4.082-6.772a9.605 9.605 0 0 1 2.969-4.175 20.57 20.57 0 0 1 4.546-2.969 31.894 31.894 0 0 1 5.473-1.948c1.918-.495 3.773-.928 5.567-1.299.37.124.556.124.556 0 0-.123.155-.062.464.186 2.227-.68 4.794-1.33 7.7-1.948 2.907-.68 6-.928 9.278-.743.433-.247.959-.37 1.577-.37a19.611 19.611 0 0 1 1.948-.094h1.948c.619-.061 1.145-.185 1.578-.37.37.432.927.71 1.67.834.742.062 1.515.371 2.319.928.247.062.247-.03 0-.278-.248-.31-.216-.526.093-.65.804 0 1.515.186 2.133.557a8.626 8.626 0 0 1 1.67 1.299c.557.433 1.052.835 1.485 1.206.495.371 1.02.556 1.577.556a14.49 14.49 0 0 0 1.948 1.949 21.483 21.483 0 0 1 2.227 1.762c.742.619 1.33 1.3 1.762 2.041.495.743.743 1.578.743 2.505-.062.371.061.588.37.65.31.062.526.247.65.556.062 2.289-.31 4.268-1.113 5.938a20.023 20.023 0 0 1-2.876 4.639 45.153 45.153 0 0 1-3.804 3.896 36.938 36.938 0 0 0-3.618 3.99 19.832 19.832 0 0 0 2.505 2.597l2.969 2.227c.99.742 1.917 1.546 2.783 2.412.928.804 1.7 1.731 2.32 2.783.185.37.587.618 1.205.742.186.742.433 1.515.742 2.32.371.742.712 1.484 1.02 2.226.31.68.496 1.299.558 1.855.061.557-.093 1.02-.464 1.392.433.247.68.65.742 1.206.062.495.062.897 0 1.206-1.36 1.67-2.288 2.845-2.783 3.526a45 45 0 0 1-1.114 1.484c-.247.31-.494.587-.742.835-.247.247-.804.742-1.67 1.484a95.394 95.394 0 0 1-10.298 5.381 42.595 42.595 0 0 1-11.04 3.154c-.309.433-.773.773-1.391 1.02a7.973 7.973 0 0 1-1.948.743c-.743.186-1.547.34-2.413.464-.804.124-1.546.247-2.226.371-.31-.124-.495-.34-.557-.649 0-.248-.154-.433-.464-.557-.062.742-.402 1.113-1.02 1.113-.557.062-1.268-.062-2.134-.371a15.174 15.174 0 0 1-2.69-1.299 32.98 32.98 0 0 1-2.413-1.577c-.309.557-.71 1.144-1.206 1.763-.432.618-.896 1.051-1.391 1.299l-1.948-.279c-.371-.061-.742.093-1.114.464-.494-.247-.865-.525-1.113-.835a10.06 10.06 0 0 1-.742-.835 4.314 4.314 0 0 0-.835-.65c-.31-.246-.773-.463-1.392-.648.124-.31.031-.774-.278-1.392-.31-.68-.742-1.082-1.299-1.206.31-.495.186-1.113-.37-1.856a9.857 9.857 0 0 1-1.3-2.69c.062-.433.093-.866.093-1.299.062-.495.124-.928.186-1.299.123-.433.278-.804.463-1.113.186-.31.495-.526.928-.65a5.38 5.38 0 0 0-.742-2.319c.557-.433.928-.958 1.113-1.577.186-.68.34-1.36.464-2.04.186-.681.402-1.33.65-1.95a3.65 3.65 0 0 1 1.206-1.67 3.042 3.042 0 0 0-.371-.463c-.124-.124-.186-.34-.186-.65.928-1.546 1.577-2.844 1.948-3.896a24.03 24.03 0 0 0 .835-3.154c.248-1.052.495-2.165.742-3.34.248-1.175.743-2.66 1.485-4.453-.062-1.113.062-2.103.37-2.969.31-.866.62-1.7.929-2.505.37-.866.649-1.762.834-2.69.186-.928.155-2.01-.092-3.247-1.052.123-1.825.495-2.32 1.113-.432.618-.71 1.453-.834 2.505-.557.495-1.268.742-2.134.742-.866-.062-1.64.031-2.32.278Zm40.82 17.906c-2.35-1.3-4.514-2.072-6.493-2.32-1.918-.247-3.773-.216-5.567.093a32.763 32.763 0 0 0-5.01 1.113 33.934 33.934 0 0 1-4.824 1.114 205.862 205.862 0 0 0-2.505 6.958c-.866 2.535-1.7 5.01-2.505 7.422 2.227-.31 4.268-.773 6.123-1.392a69.227 69.227 0 0 0 5.381-2.041 340.203 340.203 0 0 1 5.103-2.32 65.59 65.59 0 0 1 5.195-2.226 2.958 2.958 0 0 1 1.206-1.763 31.426 31.426 0 0 1 1.856-1.206 8.74 8.74 0 0 0 1.577-1.391c.433-.495.587-1.175.464-2.041Zm-6.493-29.038a46.214 46.214 0 0 0-11.319 1.02c-3.71.804-6.834 1.98-9.37 3.525a31.393 31.393 0 0 0 3.804 2.784c1.36.804 2.38 1.886 3.061 3.247 2.969-1.175 5.567-2.66 7.793-4.453a43.38 43.38 0 0 0 6.03-6.123Z"/></g><defs><clipPath id="a"><path fill="#fff" d="M0 0h128v128H0z"/></clipPath></defs></svg>